<svg width="40" height="38" viewBox="0 0 40 38" fill="none" xmlns="http://www.w3.org/2000/svg">
<path fill-rule="evenodd" clip-rule="evenodd" d="M35.6532 10.0958C35.6532 11.6561 34.3949 12.921 32.8429 12.921H29.9815V7.27061H32.8429C34.3949 7.27061 35.6532 8.53549 35.6532 10.0958ZM32.8429 11.9964C33.887 11.9964 34.7334 11.1454 34.7334 10.0958C34.7334 9.04613 33.887 8.19521 32.8429 8.19521H30.9012V11.9964H32.8429Z" fill="#A1A6AD"/>
<path fill-rule="evenodd" clip-rule="evenodd" d="M25.2297 10.0958C25.2297 11.6561 26.4879 12.921 28.0399 12.921H30.9013V7.27061H28.0399C26.4879 7.27061 25.2297 8.53549 25.2297 10.0958ZM28.0399 11.9964C26.9958 11.9964 26.1494 11.1454 26.1494 10.0958C26.1494 9.04613 26.9958 8.19521 28.0399 8.19521H29.9816V11.9964H28.0399Z" fill="#A1A6AD"/>
<path fill-rule="evenodd" clip-rule="evenodd" d="M25.2297 14.8215C25.2297 16.3818 26.4879 17.6466 28.0399 17.6466H30.9013V11.9963L28.0399 11.9964C26.4879 11.9964 25.2297 13.2612 25.2297 14.8215ZM28.0399 16.722C26.9958 16.722 26.1494 15.8711 26.1494 14.8215C26.1494 13.7718 26.9958 12.921 28.0399 12.921L29.9816 12.9209V16.722H28.0399Z" fill="#A1A6AD"/>
<path fill-rule="evenodd" clip-rule="evenodd" d="M25.2297 19.5472C25.2297 21.1107 26.5038 22.3724 28.0527 22.3724C29.6156 22.3724 30.9013 21.0992 30.9013 19.5215V16.722L28.0399 16.722C26.4879 16.722 25.2297 17.9869 25.2297 19.5472ZM28.0527 21.4478C27.0053 21.4478 26.1494 20.5936 26.1494 19.5472C26.1494 18.4975 26.9958 17.6466 28.0399 17.6466L29.9816 17.6466V19.5215C29.9816 20.5821 29.1141 21.4478 28.0527 21.4478Z" fill="#A1A6AD"/>
<path fill-rule="evenodd" clip-rule="evenodd" d="M29.9811 14.8215C29.9811 16.3818 31.2393 17.6466 32.7913 17.6466H32.8424C34.3945 17.6466 35.6527 16.3818 35.6527 14.8215C35.6527 13.2612 34.3945 11.9963 32.8424 11.9963H32.7913C31.2393 11.9963 29.9811 13.2612 29.9811 14.8215ZM32.7913 16.722C31.7472 16.722 30.9008 15.8711 30.9008 14.8215C30.9008 13.7718 31.7472 12.9209 32.7913 12.9209H32.8424C33.8866 12.9209 34.733 13.7718 34.733 14.8215C34.733 15.8711 33.8866 16.722 32.8424 16.722H32.7913Z" fill="#A1A6AD"/>
<path d="M15.8815 9.82513C16.2917 9.82513 16.6243 9.49212 16.6243 9.08133C16.6243 8.67054 16.2917 8.33752 15.8815 8.33752C15.4712 8.33752 15.1386 8.67054 15.1386 9.08133C15.1386 9.49212 15.4712 9.82513 15.8815 9.82513Z" fill="#211814"/>
<path d="M7.91606 12.7631C8.32634 12.7631 8.65893 12.4301 8.65893 12.0193C8.65893 11.6086 8.32634 11.2755 7.91606 11.2755C7.50579 11.2755 7.17319 11.6086 7.17319 12.0193C7.17319 12.4301 7.50579 12.7631 7.91606 12.7631Z" fill="#211814"/>
<path d="M24.573 12.0193C24.573 12.4301 24.2404 12.7631 23.8302 12.7631C23.4199 12.7631 23.0873 12.4301 23.0873 12.0193C23.0873 11.6086 23.4199 11.2755 23.8302 11.2755C24.2404 11.2755 24.573 11.6086 24.573 12.0193Z" fill="#211814"/>
<path d="M15.8609 22.6185C16.2712 22.6185 16.6038 22.2855 16.6038 21.8747C16.6038 21.4639 16.2712 21.1309 15.8609 21.1309C15.4506 21.1309 15.118 21.4639 15.118 21.8747C15.118 22.2855 15.4506 22.6185 15.8609 22.6185Z" fill="#211814"/>
<path d="M14.7561 27.636L12.6637 29.7575L12.5765 29.851L11.2906 31.1527V30.376L13.9932 27.636H14.7561ZM11.5812 27.636V32.3824H11V27.636H11.5812ZM12.7218 29.3907L14.7779 32.3824H14.0804L12.2423 29.7144L12.7218 29.3907Z" fill="#A1A6AD"/>
<path d="M16.8576 28.7147C17.2015 28.7147 17.5042 28.789 17.7657 28.9377C18.0321 29.0863 18.2404 29.302 18.3905 29.5849C18.5407 29.863 18.6158 30.1962 18.6158 30.5845C18.6158 30.9729 18.5407 31.3085 18.3905 31.5913C18.2404 31.8694 18.0321 32.0828 17.7657 32.2314C17.5042 32.38 17.2015 32.4543 16.8576 32.4543C16.5186 32.4543 16.2158 32.38 15.9494 32.2314C15.6831 32.0828 15.4748 31.8694 15.3246 31.5913C15.1745 31.3085 15.0994 30.9729 15.0994 30.5845C15.0994 30.1962 15.1745 29.863 15.3246 29.5849C15.4748 29.302 15.6831 29.0863 15.9494 28.9377C16.2158 28.789 16.5186 28.7147 16.8576 28.7147ZM16.8576 29.2109C16.6106 29.2109 16.3999 29.2661 16.2255 29.3764C16.0512 29.4866 15.9155 29.6448 15.8187 29.851C15.7266 30.0524 15.6806 30.2969 15.6806 30.5845C15.6806 30.8674 15.7266 31.1119 15.8187 31.3181C15.9155 31.5242 16.0512 31.6824 16.2255 31.7927C16.3999 31.903 16.6106 31.9581 16.8576 31.9581C17.1046 31.9581 17.3153 31.903 17.4897 31.7927C17.664 31.6824 17.7972 31.5242 17.8892 31.3181C17.9861 31.1119 18.0345 30.8674 18.0345 30.5845C18.0345 30.2969 17.9861 30.0524 17.8892 29.851C17.7972 29.6448 17.664 29.4866 17.4897 29.3764C17.3153 29.2661 17.1046 29.2109 16.8576 29.2109Z" fill="#A1A6AD"/>
<path d="M21.2139 28.7147C21.4657 28.7147 21.6861 28.7531 21.875 28.8298C22.0687 28.9065 22.2358 29.0168 22.3763 29.1606C22.5167 29.3044 22.6306 29.4746 22.7177 29.6712L22.1656 29.9301C22.0881 29.7 21.9694 29.525 21.8096 29.4051C21.6546 29.2805 21.4512 29.2181 21.1993 29.2181C20.9571 29.2181 20.7489 29.2733 20.5745 29.3835C20.4002 29.489 20.267 29.6448 20.1749 29.851C20.0829 30.0524 20.0369 30.2969 20.0369 30.5845C20.0369 30.8674 20.0829 31.1119 20.1749 31.3181C20.267 31.5242 20.4002 31.6824 20.5745 31.7927C20.7489 31.8982 20.9571 31.9509 21.1993 31.9509C21.3882 31.9509 21.5505 31.9222 21.6861 31.8646C21.8265 31.8071 21.9404 31.7232 22.0275 31.6129C22.1196 31.5026 22.1825 31.3684 22.2164 31.2102L22.7541 31.3972C22.6717 31.6177 22.5579 31.8071 22.4126 31.9653C22.2721 32.1235 22.1002 32.2458 21.8968 32.3321C21.6982 32.4136 21.4706 32.4543 21.2139 32.4543C20.8748 32.4543 20.5721 32.38 20.3057 32.2314C20.0393 32.0828 19.831 31.8694 19.6809 31.5913C19.5308 31.3085 19.4557 30.9729 19.4557 30.5845C19.4557 30.1962 19.5308 29.863 19.6809 29.5849C19.831 29.302 20.0393 29.0863 20.3057 28.9377C20.5721 28.789 20.8748 28.7147 21.2139 28.7147Z" fill="#A1A6AD"/>
<path d="M23.7753 32.3824V27.1326H24.3565V29.326C24.4825 29.1103 24.6496 28.9544 24.8578 28.8586C25.0661 28.7627 25.2937 28.7147 25.5408 28.7147C25.8023 28.7147 26.0396 28.7651 26.2527 28.8658C26.4659 28.9616 26.6354 29.1103 26.7613 29.3116C26.8921 29.513 26.9575 29.7695 26.9575 30.0811V32.3824H26.3763V30.2825C26.3763 29.8846 26.2891 29.6089 26.1147 29.4555C25.9452 29.2972 25.7345 29.2181 25.4826 29.2181C25.3083 29.2181 25.1339 29.2589 24.9596 29.3404C24.7852 29.4219 24.6399 29.5561 24.5236 29.7431C24.4122 29.9253 24.3565 30.1698 24.3565 30.4767V32.3824H23.7753Z" fill="#A1A6AD"/>
<path d="M28.5641 28.0963C28.4333 28.0963 28.3268 28.0579 28.2444 27.9812C28.1669 27.8997 28.1282 27.7942 28.1282 27.6648C28.1282 27.5353 28.1669 27.4322 28.2444 27.3555C28.3268 27.274 28.4333 27.2333 28.5641 27.2333C28.6949 27.2333 28.799 27.274 28.8765 27.3555C28.9588 27.4322 29 27.5353 29 27.6648C29 27.7942 28.9588 27.8997 28.8765 27.9812C28.799 28.0579 28.6949 28.0963 28.5641 28.0963ZM28.8547 28.7866V32.3824H28.2735V28.7866H28.8547Z" fill="#A1A6AD"/>
<path fill-rule="evenodd" clip-rule="evenodd" d="M14.1608 20.9428L14.6738 21.401C14.6292 21.5278 14.605 21.664 14.605 21.8059C14.605 22.4814 15.1544 23.0289 15.8321 23.0289C16.5098 23.0289 17.0592 22.4814 17.0592 21.8059C17.0592 21.6755 17.0387 21.5499 17.0008 21.4321L17.5499 20.9417L17.5758 20.9186C19.4707 19.2327 21.1176 17.7675 22.2819 16.3699C23.1119 15.3735 23.7459 14.3551 24.0487 13.251C24.5852 13.1203 24.9834 12.638 24.9834 12.0629C24.9834 11.5305 24.6421 11.0776 24.1656 10.9096C23.7452 8.57111 21.7031 6.86021 19.218 6.86021C18.3351 6.86021 17.5272 7.19605 16.8623 7.61769C16.6781 7.73452 16.5006 7.86061 16.3307 7.9927C16.1784 7.92509 16.0096 7.88751 15.8321 7.88751C15.6658 7.88751 15.5072 7.92048 15.3626 7.98022C15.1976 7.85267 15.0255 7.73084 14.8471 7.61769C14.1822 7.19605 13.3743 6.86021 12.4914 6.86021C10.0119 6.86021 7.97343 8.56339 7.5467 10.8938C7.04526 11.0475 6.68076 11.5128 6.68076 12.0629C6.68076 12.655 7.10295 13.1489 7.66366 13.2617C7.96759 14.3617 8.60015 15.3768 9.42752 16.3699C10.5918 17.7675 12.2387 19.2327 14.1335 20.9185L14.1608 20.9428ZM8.56836 13.0938C9.22164 15.3208 11.5337 17.3815 14.771 20.2617L15.2779 20.7145C15.4444 20.6303 15.6327 20.5829 15.8321 20.5829C16.043 20.5829 16.2414 20.636 16.4148 20.7294L16.9384 20.2617C20.1643 17.3916 22.4715 15.3353 23.1341 13.1173C22.7721 12.9046 22.5292 12.512 22.5292 12.0629C22.5292 11.5712 22.8204 11.1472 23.2403 10.953C22.8513 9.11199 21.2215 7.77332 19.218 7.77332C18.4199 7.77332 17.6415 8.14871 16.9708 8.654C17.0278 8.79505 17.0592 8.94913 17.0592 9.11051C17.0592 9.78595 16.5098 10.3335 15.8321 10.3335C15.1544 10.3335 14.605 9.78595 14.605 9.11051C14.605 8.93924 14.6403 8.7762 14.7041 8.62823C14.0413 8.13599 13.2759 7.77332 12.4914 7.77332C10.4807 7.77332 8.8463 9.12166 8.46488 10.9729C8.86261 11.1752 9.13495 11.5874 9.13495 12.0629C9.13495 12.496 8.90909 12.8765 8.56836 13.0938ZM7.46585 11.6881C7.46585 11.6881 7.46585 11.688 7.46585 11.6881C7.57231 11.5635 7.73083 11.4845 7.90787 11.4845C8.10333 11.4845 8.27622 11.5808 8.38139 11.7284C8.38139 11.7284 8.38139 11.7284 8.38139 11.7284C8.44869 11.8228 8.48826 11.9383 8.48826 12.0629C8.48826 12.3824 8.2284 12.6414 7.90786 12.6414C7.58731 12.6414 7.32746 12.3824 7.32746 12.0629C7.32746 11.9199 7.37955 11.789 7.46585 11.6881ZM16.4125 21.8059C16.4125 21.7839 16.4113 21.7622 16.4089 21.7409C16.3985 21.6489 16.3666 21.5634 16.3181 21.4896C16.2187 21.3381 16.0498 21.236 15.8565 21.228L15.8527 21.2278C15.8458 21.2276 15.839 21.2275 15.8321 21.2275C15.5116 21.2275 15.2517 21.4865 15.2517 21.806C15.2517 21.8323 15.2535 21.8583 15.2569 21.8837C15.259 21.899 15.2616 21.9141 15.2648 21.9289C15.3214 22.1893 15.5539 22.3844 15.8321 22.3844C16.1526 22.3844 16.4125 22.1254 16.4125 21.8059ZM23.7563 12.6414C23.5883 12.6414 23.437 12.5703 23.331 12.4566C23.3159 12.4404 23.3017 12.4232 23.2885 12.4053C23.2177 12.3095 23.1759 12.1911 23.1759 12.0629C23.1759 11.9132 23.233 11.7768 23.3266 11.6741C23.4328 11.5576 23.586 11.4845 23.7563 11.4845C23.9356 11.4845 24.0959 11.5655 24.2023 11.6928C24.2176 11.711 24.2317 11.7301 24.2446 11.7501C24.3029 11.8403 24.3367 11.9477 24.3367 12.0629C24.3367 12.3824 24.0769 12.6414 23.7563 12.6414ZM15.8321 8.53207C16.0324 8.53207 16.2091 8.63324 16.3134 8.78711C16.3649 8.86306 16.3987 8.95184 16.4091 9.04763C16.4113 9.06828 16.4125 9.08926 16.4125 9.11051C16.4125 9.42998 16.1526 9.68897 15.8321 9.68897C15.5115 9.68897 15.2517 9.42998 15.2517 9.11051C15.2517 9.10132 15.2519 9.09218 15.2523 9.0831C15.2667 8.77636 15.5208 8.53207 15.8321 8.53207Z" fill="#A1A6AD"/>
</svg>
