<svg width="16" height="16" viewBox="0 0 16 16" fill="none" xmlns="http://www.w3.org/2000/svg">
<path d="M4.00019 6.58312C2.37735 7.09282 1.2002 8.60894 1.2002 10.4C1.2002 12.6091 2.99106 14.4 5.20019 14.4C6.31915 14.4 7.3308 13.9405 8.05677 13.2C8.76407 12.4785 9.20019 11.4902 9.20019 10.4M12.0002 6.58312C13.6232 7.09272 14.8005 8.60892 14.8005 10.4001C14.8005 12.6092 13.0097 14.4001 10.8005 14.4001C9.89989 14.4001 9.06878 14.1024 8.40019 13.6001M12.0002 5.59991C12.0002 7.80905 10.2093 9.59991 8.00019 9.59991C5.79106 9.59991 4.00019 7.80905 4.00019 5.59991C4.00019 3.39078 5.79106 1.59991 8.00019 1.59991C10.2093 1.59991 12.0002 3.39078 12.0002 5.59991Z" stroke="#E0E0E0" stroke-width="2" stroke-linecap="round" stroke-linejoin="round"/>
</svg>
